<?xml version="1.0" encoding="UTF-8"?>
<svg id="Capa_2" data-name="Capa 2" xmlns="http://www.w3.org/2000/svg" xmlns:xlink="http://www.w3.org/1999/xlink" viewBox="0 0 216.26 147.68">
  <defs>
    <style>
      .cls-1 {
        fill: #a2c617;
      }

      .cls-1, .cls-2, .cls-3 {
        fill-rule: evenodd;
      }

      .cls-2 {
        fill: url(#Degradado_sin_nombre_172);
      }

      .cls-3 {
        fill: url(#Degradado_sin_nombre_181);
      }
    </style>
    <linearGradient id="Degradado_sin_nombre_181" data-name="Degradado sin nombre 181" x1="153.79" y1="82.16" x2="216.95" y2="113.99" gradientUnits="userSpaceOnUse">
      <stop offset="0" stop-color="#000"/>
      <stop offset=".05" stop-color="#212804"/>
      <stop offset=".11" stop-color="#435209"/>
      <stop offset=".17" stop-color="#60750d"/>
      <stop offset=".24" stop-color="#789211"/>
      <stop offset=".31" stop-color="#8aa813"/>
      <stop offset=".39" stop-color="#97b815"/>
      <stop offset=".48" stop-color="#9fc216"/>
      <stop offset=".6" stop-color="#a2c517"/>
    </linearGradient>
    <linearGradient id="Degradado_sin_nombre_172" data-name="Degradado sin nombre 172" x1="26.05" y1="5.76" x2="138.4" y2="122.43" gradientUnits="userSpaceOnUse">
      <stop offset=".59" stop-color="#a2c517"/>
      <stop offset=".63" stop-color="#99ba15"/>
      <stop offset=".7" stop-color="#829e12"/>
      <stop offset=".79" stop-color="#5c700d"/>
      <stop offset=".89" stop-color="#293205"/>
      <stop offset=".96" stop-color="#000"/>
    </linearGradient>
  </defs>
  <g id="Capa_1-2" data-name="Capa 1">
    <path class="cls-3" d="m145.53,103.77c1.4,2.09,3.01,4.04,4.78,5.82,6.99,6.99,16.65,11.31,27.31,11.31s20.32-4.33,27.31-11.31c6.99-6.99,11.32-16.65,11.32-27.31h-22.2c0,4.54-1.84,8.65-4.81,11.62-2.97,2.97-7.08,4.81-11.62,4.81s-8.65-1.84-11.62-4.81c-2.05-2.05-3.56-4.63-4.3-7.53h-.03l-3.99-15.03-12.16,32.44Z"/>
    <path class="cls-2" d="m150.82,34.51c-2.76-10.4-7-18.48-15.54-25.26-3.7-2.93-7.91-5.26-12.46-6.85-9.16-3.2-18.85-3.2-28.02,0-4.55,1.59-8.76,3.92-12.46,6.85-8.54,6.77-12.77,14.85-15.54,25.26l-15.76,59.39c-.58,1.43-1.54,2.62-2.73,3.47-1.32.95-2.96,1.49-4.71,1.49s-3.41-.54-4.71-1.48c-1.11-.8-2.02-1.89-2.61-3.18l-13.37-50.39H0l13.66,51.5c2.23,8.39,3.94,14,12.31,20.02,5.05,3.64,11.18,5.73,17.63,5.73s12.52-2.06,17.54-5.65c9.45-6.76,10.77-13.79,13.36-23.58l13.03-49.09c1.78-6.72,3.07-11.76,8.59-16.14,1.8-1.43,3.81-2.55,5.96-3.3,4.2-1.47,9.12-1.47,13.32,0,2.19.76,4.21,1.88,5.98,3.28,1.78,1.41,3.33,3.12,4.57,5.05.55.87,1.04,1.79,1.46,2.76h.04c1.08,2.49,1.8,5.23,2.62,8.34l.29,1.09,7.59,28.59,4.91,18.49c1.06,4.73,2.98,9.13,5.6,13.02l12.16-32.44-7.5-28.26-2.31-8.72Z"/>
    <polygon class="cls-1" points="127.06 43.66 106.57 120.9 83.65 120.9 104.15 43.66 127.06 43.66"/>
    <path class="cls-1" d="m139.94,73.82l-19.51,73.86h22.91l18.35-69.47h.03c.74-2.89,2.25-5.48,4.3-7.53,2.97-2.97,7.08-4.81,11.62-4.81s8.65,1.84,11.62,4.81c2.97,2.97,4.81,7.08,4.81,11.62l11,2.91,11.2-2.91c0-10.67-4.33-20.32-11.32-27.31-6.99-6.99-16.65-11.31-27.31-11.31s-20.32,4.33-27.31,11.31c-5.08,5.08-8.75,11.57-10.38,18.84Z"/>
  </g>
</svg>